<svg width="59" height="59" viewBox="0 0 59 59" fill="none" xmlns="http://www.w3.org/2000/svg">
<g filter="url(#filter0_d_2_4465)">
<path d="M35.0371 34.6875C34.2365 34.6875 33.1118 34.3979 31.4277 33.457C29.3798 32.3086 27.7958 31.2483 25.759 29.2168C23.7951 27.2542 22.8395 25.9836 21.502 23.5497C19.9909 20.8016 20.2485 19.3612 20.5364 18.7455C20.8793 18.0097 21.3855 17.5696 22.0397 17.1328C22.4112 16.8893 22.8045 16.6806 23.2144 16.5094C23.2554 16.4917 23.2935 16.4749 23.3276 16.4597C23.5306 16.3683 23.8382 16.23 24.2279 16.3777C24.4879 16.4753 24.72 16.6751 25.0834 17.034C25.8287 17.769 26.8471 19.4059 27.2228 20.2098C27.4751 20.7516 27.642 21.1093 27.6424 21.5104C27.6424 21.98 27.4062 22.3422 27.1195 22.7331C27.0657 22.8065 27.0124 22.8766 26.9607 22.9447C26.6486 23.3549 26.5801 23.4734 26.6252 23.685C26.7167 24.1104 27.3988 25.3765 28.5197 26.495C29.6407 27.6135 30.8703 28.2525 31.2973 28.3436C31.518 28.3908 31.639 28.3194 32.0622 27.9962C32.1229 27.9498 32.1853 27.9019 32.2505 27.8539C32.6877 27.5286 33.0331 27.2985 33.4916 27.2985H33.4941C33.8932 27.2985 34.2348 27.4716 34.8009 27.7571C35.5391 28.1295 37.2253 29.1348 37.9648 29.8809C38.3245 30.2434 38.5251 30.4748 38.6231 30.7344C38.7708 31.1253 38.6317 31.4317 38.5411 31.6367C38.5259 31.6708 38.5091 31.7081 38.4914 31.7495C38.3188 32.1587 38.1089 32.5511 37.8643 32.9218C37.4283 33.5739 36.9866 34.0788 36.2491 34.4221C35.8704 34.6012 35.456 34.692 35.0371 34.6875Z" fill="white"/>
</g>
<defs>
<filter id="filter0_d_2_4465" x="-1" y="-1" width="61" height="61" filterUnits="userSpaceOnUse" color-interpolation-filters="sRGB">
<feFlood flood-opacity="0" result="BackgroundImageFix"/>
<feColorMatrix in="SourceAlpha" type="matrix" values="0 0 0 0 0 0 0 0 0 0 0 0 0 0 0 0 0 0 127 0" result="hardAlpha"/>
<feOffset dy="4"/>
<feGaussianBlur stdDeviation="10"/>
<feColorMatrix type="matrix" values="0 0 0 0 0 0 0 0 0 0 0 0 0 0 0 0 0 0 0.25 0"/>
<feBlend mode="normal" in2="BackgroundImageFix" result="effect1_dropShadow_2_4465"/>
<feBlend mode="normal" in="SourceGraphic" in2="effect1_dropShadow_2_4465" result="shape"/>
</filter>
</defs>
</svg>
