<svg width="19" height="19" viewBox="0 0 19 19" fill="none" xmlns="http://www.w3.org/2000/svg">
<path d="M18.6494 3.56757C18.6401 3.42097 18.5819 3.28172 18.4841 3.17211C18.3863 3.0625 18.2546 2.98887 18.11 2.963C14.5622 2.32643 13.0811 1.86624 9.7703 0.370809C9.68536 0.332418 9.59322 0.312561 9.5 0.312561C9.40679 0.312561 9.31465 0.332418 9.22971 0.370809C5.91893 1.86624 4.43785 2.32643 0.890002 2.963C0.745409 2.98887 0.613676 3.0625 0.51589 3.17211C0.418104 3.28172 0.359918 3.42097 0.350647 3.56757C0.192737 6.07403 0.529475 8.40946 1.35266 10.5091C2.02676 12.2217 3.02438 13.7884 4.29102 15.1237C6.48412 17.4505 8.81258 18.4612 9.25678 18.64C9.41463 18.7038 9.59112 18.7038 9.74897 18.64C10.1932 18.4612 12.5216 17.4505 14.7147 15.1237C15.9793 13.7879 16.975 12.2212 17.6474 10.5091C18.4705 8.40946 18.8073 6.07403 18.6494 3.56757ZM13.2763 6.64825L8.73178 11.8982C8.67335 11.9659 8.60169 12.021 8.52121 12.06C8.44074 12.099 8.35314 12.1211 8.26379 12.1251H8.23672C8.06497 12.1251 7.90004 12.0578 7.77735 11.9376L5.75938 9.96067C5.69781 9.90035 5.64873 9.82848 5.61494 9.74919C5.58115 9.6699 5.5633 9.58472 5.56243 9.49853C5.56066 9.32447 5.62811 9.15682 5.74995 9.03249C5.87178 8.90815 6.03801 8.83731 6.21208 8.83554C6.38615 8.83377 6.55379 8.90122 6.67813 9.02305L8.19571 10.5115L12.285 5.78938C12.3414 5.72421 12.41 5.67078 12.4871 5.63215C12.5641 5.59352 12.648 5.57044 12.734 5.56423C12.8199 5.55802 12.9063 5.56881 12.9881 5.59597C13.0699 5.62313 13.1455 5.66613 13.2107 5.72253C13.2759 5.77892 13.3293 5.8476 13.3679 5.92464C13.4066 6.00169 13.4296 6.08558 13.4358 6.17154C13.442 6.2575 13.4313 6.34385 13.4041 6.42564C13.3769 6.50743 13.3339 6.58308 13.2775 6.64825H13.2763Z" fill="#1C4F8B"/>
</svg>
