<svg width="19" height="19" viewBox="0 0 19 19" fill="none" xmlns="http://www.w3.org/2000/svg">
<path d="M15.0371 18.6875C14.2365 18.6875 13.1118 18.398 11.4277 17.4571C9.37982 16.3086 7.7958 15.2484 5.75897 13.2169C3.79514 11.2543 2.83947 9.98361 1.50195 7.54974C-0.0090619 4.80169 0.248516 3.36122 0.536446 2.74558C0.879336 2.00976 1.38547 1.56966 2.03967 1.13284C2.41125 0.88939 2.80447 0.680695 3.21436 0.509406C3.25537 0.49177 3.29352 0.474953 3.32756 0.459778C3.53059 0.368313 3.8382 0.23009 4.22785 0.377746C4.48789 0.475363 4.72004 0.67511 5.08344 1.034C5.82869 1.769 6.84711 3.40593 7.22281 4.20984C7.47506 4.75165 7.64199 5.10931 7.6424 5.51044C7.6424 5.98007 7.40615 6.34224 7.11945 6.73312C7.06572 6.80654 7.0124 6.87667 6.96072 6.94476C6.64859 7.35491 6.5801 7.47345 6.62522 7.68509C6.71668 8.11042 7.39877 9.37657 8.51973 10.4951C9.64068 11.6136 10.8703 12.2526 11.2973 12.3436C11.518 12.3908 11.639 12.3194 12.0622 11.9962C12.1229 11.9499 12.1853 11.9019 12.2505 11.8539C12.6877 11.5287 13.0331 11.2986 13.4916 11.2986H13.4941C13.8932 11.2986 14.2348 11.4717 14.8009 11.7571C15.5391 12.1295 17.2253 13.1348 17.9648 13.8809C18.3245 14.2435 18.5251 14.4748 18.6231 14.7344C18.7708 15.1253 18.6317 15.4317 18.5411 15.6368C18.5259 15.6708 18.5091 15.7082 18.4914 15.7496C18.3188 16.1587 18.1089 16.5511 17.8643 16.9218C17.4283 17.574 16.9866 18.0789 16.2491 18.4222C15.8704 18.6013 15.456 18.692 15.0371 18.6875Z" fill="#1C4F8B"/>
</svg>
