<svg width="21" height="21" viewBox="0 0 21 21" fill="none" xmlns="http://www.w3.org/2000/svg">
<path d="M16.037 19.6876C15.2364 19.6876 14.1117 19.398 12.4276 18.4571C10.3797 17.3087 8.79568 16.2484 6.75884 14.2169C4.79501 12.2543 3.83935 10.9837 2.50183 8.54981C0.990816 5.80177 1.24839 4.3613 1.53632 3.74565C1.87921 3.00983 2.38535 2.56974 3.03955 2.13292C3.41113 1.88947 3.80435 1.68077 4.21423 1.50948C4.25525 1.49185 4.29339 1.47503 4.32744 1.45985C4.53046 1.36839 4.83808 1.23017 5.22773 1.37782C5.48777 1.47544 5.71992 1.67519 6.08332 2.03407C6.82857 2.76907 7.84699 4.40601 8.22269 5.20991C8.47494 5.75173 8.64187 6.10939 8.64228 6.51052C8.64228 6.98015 8.40603 7.34231 8.11933 7.73319C8.0656 7.80661 8.01228 7.87675 7.9606 7.94483C7.64847 8.35499 7.57998 8.47353 7.62509 8.68517C7.71656 9.1105 8.39865 10.3767 9.5196 11.4951C10.6406 12.6136 11.8702 13.2527 12.2972 13.3437C12.5178 13.3909 12.6388 13.3195 13.0621 12.9963C13.1228 12.95 13.1852 12.902 13.2504 12.854C13.6876 12.5287 14.033 12.2986 14.4915 12.2986H14.494C14.8931 12.2986 15.2347 12.4717 15.8007 12.7572C16.539 13.1296 18.2252 14.1349 18.9647 14.881C19.3244 15.2436 19.525 15.4749 19.623 15.7345C19.7706 16.1254 19.6316 16.4318 19.541 16.6369C19.5258 16.6709 19.509 16.7082 19.4913 16.7497C19.3187 17.1588 19.1088 17.5512 18.8642 17.9219C18.4282 18.574 17.9865 19.0789 17.249 19.4222C16.8703 19.6014 16.4559 19.6921 16.037 19.6876Z" fill="#1C4F8B"/>
</svg>
