<svg width="27" height="28" viewBox="0 0 27 28" fill="none" xmlns="http://www.w3.org/2000/svg">
<g clip-path="url(#clip0_7_182)">
<path d="M26.1586 5.74616C25.9164 3.47646 24.1239 1.68352 21.854 1.44149C16.1616 0.833958 10.4527 0.833958 4.76053 1.44149C2.49062 1.68373 0.697886 3.47646 0.455646 5.74616C-0.151882 11.4383 -0.151882 17.1475 0.455646 22.8396C0.697886 25.1095 2.49062 26.9022 4.76032 27.1445C10.4524 27.752 16.1616 27.752 21.854 27.1445C24.1239 26.9022 25.9164 25.1095 26.1586 22.8396C26.7662 17.1475 26.7662 11.4385 26.1586 5.74616Z" fill="url(#paint0_radial_7_182)"/>
<path d="M24.7113 6.70903C24.4965 4.69497 22.9058 3.10407 20.8915 2.88904C15.8404 2.35014 10.7743 2.35014 5.72319 2.88904C3.70913 3.10407 2.11823 4.69497 1.9032 6.70903C1.3643 11.7601 1.3643 16.8262 1.9032 21.8771C2.11823 23.8914 3.70913 25.4823 5.72319 25.6971C10.7743 26.2362 15.8404 26.2362 20.8913 25.6971C22.9056 25.4823 24.4965 23.8914 24.7113 21.8771C25.2504 16.8262 25.2504 11.7601 24.7113 6.70903Z" fill="url(#paint1_linear_7_182)"/>
<path d="M0.398438 22.2881C0.416712 22.4721 0.435596 22.656 0.455292 22.84C0.697531 25.1097 2.49027 26.9024 4.76017 27.1447C10.4523 27.7522 16.1615 27.7522 21.8536 27.1447C24.1235 26.9024 25.916 25.1097 26.1583 22.84C26.178 22.656 26.1969 22.4721 26.2153 22.2881H0.398438Z" fill="url(#paint2_linear_7_182)"/>
<path d="M26.1591 22.8395C26.4856 19.781 26.6363 16.7176 26.6119 13.6545L20.5285 7.57114C19.7685 6.7035 18.6584 6.16196 17.354 6.11506C14.6715 6.01841 11.9805 6.02328 9.29758 6.11546C7.0693 6.19222 5.51109 7.68992 5.11149 9.8912C5.04103 10.2798 4.99879 10.6736 4.94336 11.065V17.5184C4.97402 17.7275 5.0191 17.9357 5.03311 18.146C5.12245 19.4849 5.67272 20.6318 6.55376 21.4076L12.7444 27.598C15.7824 27.6194 18.8207 27.4683 21.8545 27.1444C24.1244 26.9022 25.9169 25.1095 26.1591 22.8395Z" fill="url(#paint3_linear_7_182)"/>
<path d="M26.1583 22.8398C25.9163 25.1093 24.1231 26.9024 21.8537 27.1444C18.8203 27.4681 15.7814 27.6194 12.7438 27.598L6.5625 21.4168C7.27907 22.044 8.2131 22.4259 9.29699 22.4667C11.9793 22.5675 14.6709 22.5648 17.3532 22.4682C19.7793 22.3805 21.5349 20.5849 21.6106 18.1588C21.6914 15.5829 21.6914 13.0003 21.6106 10.4244C21.5761 9.30519 21.1832 8.32039 20.5318 7.5752L26.6113 13.6547C26.6353 16.7174 26.4846 19.7812 26.1583 22.8398Z" fill="url(#paint4_linear_7_182)"/>
<path d="M16.4482 11.4112C15.6688 10.5627 14.5506 10.0303 13.3078 10.0303C10.9536 10.0303 9.04492 11.939 9.04492 14.2931C9.04492 15.536 9.57732 16.6542 10.4259 17.4335L20.2887 27.2963C20.8107 27.2508 21.3327 27.2003 21.8544 27.1446C24.1243 26.9024 25.917 25.1096 26.1593 22.8397C26.2149 22.3181 26.2655 21.7961 26.3109 21.274L16.4482 11.4112Z" fill="url(#paint5_linear_7_182)"/>
<path d="M26.5627 17.1601L18.625 9.2226C18.4399 8.97955 18.1481 8.82178 17.8189 8.82178C17.2589 8.82178 16.8047 9.2758 16.8047 9.83602C16.8047 10.1652 16.9625 10.4569 17.2055 10.6421L26.4208 19.8576C26.4833 18.9587 26.5306 18.0594 26.5627 17.1601Z" fill="url(#paint6_linear_7_182)"/>
<path d="M4.94336 11.065C4.99879 10.6736 5.04103 10.2798 5.11149 9.8912C5.51089 7.68992 7.0693 6.19222 9.29758 6.11546C11.9805 6.02328 14.6715 6.01841 17.354 6.11506C19.7793 6.20237 21.5357 7.99815 21.6114 10.4242C21.692 13.0003 21.692 15.5827 21.6114 18.1588C21.5357 20.5849 19.7799 22.3805 17.3542 22.468C14.6717 22.5648 11.9801 22.5673 9.29779 22.4665C6.87214 22.3754 5.19535 20.5755 5.03311 18.1458C5.0191 17.9357 4.97402 17.7273 4.94336 17.5182C4.94336 15.3671 4.94336 13.216 4.94336 11.065ZM13.3099 21.0302C14.5375 21.0302 15.7664 21.0669 16.9924 21.0216C18.9147 20.9504 20.097 19.8031 20.1419 17.8827C20.1976 15.4897 20.1976 13.0935 20.1419 10.7004C20.097 8.7803 18.9139 7.60626 16.9924 7.56545C14.5536 7.51388 12.1121 7.51428 9.67323 7.56545C7.76638 7.60545 6.58056 8.75574 6.52878 10.6547C6.46299 13.0779 6.46299 15.5054 6.52878 17.9286C6.58056 19.8273 7.76638 20.951 9.67343 21.0216C10.884 21.0667 12.0977 21.0302 13.3099 21.0302Z" fill="url(#paint7_linear_7_182)"/>
<path d="M4.94336 11.065C4.99879 10.6736 5.04103 10.2798 5.11149 9.8912C5.51089 7.68992 7.0693 6.19222 9.29758 6.11546C11.9805 6.02328 14.6715 6.01841 17.354 6.11506C19.7793 6.20237 21.5357 7.99815 21.6114 10.4242C21.692 13.0003 21.692 15.5827 21.6114 18.1588C21.5357 20.5849 19.7799 22.3805 17.3542 22.468C14.6717 22.5648 11.9801 22.5673 9.29779 22.4665C6.87214 22.3754 5.19535 20.5755 5.03311 18.1458C5.0191 17.9357 4.97402 17.7273 4.94336 17.5182C4.94336 15.3671 4.94336 13.216 4.94336 11.065ZM13.3099 21.0302C14.5375 21.0302 15.7664 21.0669 16.9924 21.0216C18.9147 20.9504 20.097 19.8031 20.1419 17.8827C20.1976 15.4897 20.1976 13.0935 20.1419 10.7004C20.097 8.7803 18.9139 7.60626 16.9924 7.56545C14.5536 7.51388 12.1121 7.51428 9.67323 7.56545C7.76638 7.60545 6.58056 8.75574 6.52878 10.6547C6.46299 13.0779 6.46299 15.5054 6.52878 17.9286C6.58056 19.8273 7.76638 20.951 9.67343 21.0216C10.884 21.0667 12.0977 21.0302 13.3099 21.0302Z" fill="white"/>
<path d="M13.3078 10.0303C10.9536 10.0303 9.04492 11.9387 9.04492 14.2929C9.04492 16.6473 10.9536 18.5558 13.3078 18.5558C15.6621 18.5558 17.5706 16.6473 17.5706 14.2929C17.5706 11.9387 15.6621 10.0303 13.3078 10.0303ZM13.3078 17.0881C11.764 17.0881 10.5126 15.8367 10.5126 14.2929C10.5126 12.7491 11.764 11.4977 13.3078 11.4977C14.8516 11.4977 16.103 12.7491 16.103 14.2929C16.103 15.8367 14.8516 17.0881 13.3078 17.0881Z" fill="white"/>
<path d="M18.8339 9.83602C18.8339 10.396 18.3799 10.8501 17.8199 10.8501C17.2599 10.8501 16.8057 10.396 16.8057 9.83602C16.8057 9.2758 17.2599 8.82178 17.8199 8.82178C18.3799 8.82178 18.8339 9.2758 18.8339 9.83602Z" fill="white"/>
</g>
<defs>
<radialGradient id="paint0_radial_7_182" cx="0" cy="0" r="1" gradientUnits="userSpaceOnUse" gradientTransform="translate(5.45578 24.2446) scale(29.3509)">
<stop stop-color="#FAE100"/>
<stop offset="0.0544" stop-color="#FADC04"/>
<stop offset="0.1167" stop-color="#FBCE0E"/>
<stop offset="0.1829" stop-color="#FCB720"/>
<stop offset="0.2514" stop-color="#FE9838"/>
<stop offset="0.3054" stop-color="#FF7950"/>
<stop offset="0.4922" stop-color="#FF1C74"/>
<stop offset="1" stop-color="#6C1CD1"/>
</radialGradient>
<linearGradient id="paint1_linear_7_182" x1="10.2079" y1="12.5497" x2="-34.8799" y2="-12.8121" gradientUnits="userSpaceOnUse">
<stop stop-color="#A1B5D8" stop-opacity="0"/>
<stop offset="0.3094" stop-color="#90A2BD" stop-opacity="0.309804"/>
<stop offset="0.7554" stop-color="#7C8B9C" stop-opacity="0.756863"/>
<stop offset="1" stop-color="#748290"/>
</linearGradient>
<linearGradient id="paint2_linear_7_182" x1="13.3068" y1="24.4797" x2="13.3068" y2="28.6282" gradientUnits="userSpaceOnUse">
<stop stop-color="#FAE100" stop-opacity="0"/>
<stop offset="0.3068" stop-color="#FCA800" stop-opacity="0.305882"/>
<stop offset="0.6275" stop-color="#FE7300" stop-opacity="0.627451"/>
<stop offset="0.8685" stop-color="#FF5200" stop-opacity="0.866667"/>
<stop offset="1" stop-color="#FF4500"/>
</linearGradient>
<linearGradient id="paint3_linear_7_182" x1="11.7936" y1="12.7412" x2="5.20695" y2="6.15458" gradientUnits="userSpaceOnUse">
<stop stop-color="#833AB4" stop-opacity="0"/>
<stop offset="1" stop-color="#833AB4"/>
</linearGradient>
<linearGradient id="paint4_linear_7_182" x1="18.2398" y1="25.3279" x2="14.9523" y2="9.82972" gradientUnits="userSpaceOnUse">
<stop stop-color="#833AB4" stop-opacity="0"/>
<stop offset="1" stop-color="#833AB4"/>
</linearGradient>
<linearGradient id="paint5_linear_7_182" x1="19.4917" y1="20.477" x2="6.28727" y2="7.27261" gradientUnits="userSpaceOnUse">
<stop stop-color="#833AB4" stop-opacity="0"/>
<stop offset="1" stop-color="#833AB4"/>
</linearGradient>
<linearGradient id="paint6_linear_7_182" x1="20.4705" y1="12.4875" x2="16.104" y2="8.12108" gradientUnits="userSpaceOnUse">
<stop stop-color="#833AB4" stop-opacity="0"/>
<stop offset="1" stop-color="#833AB4"/>
</linearGradient>
<linearGradient id="paint7_linear_7_182" x1="18.5919" y1="9.04542" x2="7.82585" y2="19.8115" gradientUnits="userSpaceOnUse">
<stop stop-color="#833AB4"/>
<stop offset="0.0922" stop-color="#9C3495"/>
<stop offset="0.2927" stop-color="#DC2546"/>
<stop offset="0.392" stop-color="#FD1D1D"/>
<stop offset="0.5589" stop-color="#FC6831"/>
<stop offset="0.6887" stop-color="#FC9B40"/>
<stop offset="0.7521" stop-color="#FCAF45"/>
<stop offset="0.7806" stop-color="#FDB750"/>
<stop offset="0.8656" stop-color="#FECB6A"/>
<stop offset="0.9415" stop-color="#FFD87A"/>
<stop offset="1" stop-color="#FFDC80"/>
</linearGradient>
<clipPath id="clip0_7_182">
<rect width="26.6143" height="26.6143" fill="white" transform="translate(0 0.98584)"/>
</clipPath>
</defs>
</svg>
