<svg width="28" height="28" viewBox="0 0 28 28" fill="none" xmlns="http://www.w3.org/2000/svg">
<g clip-path="url(#clip0_7_195)">
<path d="M14.2004 27.6C21.8219 27.6 28.0004 21.4215 28.0004 13.8C28.0004 6.17847 21.8219 0 14.2004 0C6.57886 0 0.400391 6.17847 0.400391 13.8C0.400391 21.4215 6.57886 27.6 14.2004 27.6Z" fill="#4D76A1"/>
<path fill-rule="evenodd" clip-rule="evenodd" d="M13.6791 19.8523H14.7622C14.7622 19.8523 15.0894 19.8164 15.2565 19.6363C15.4102 19.471 15.4053 19.1605 15.4053 19.1605C15.4053 19.1605 15.3841 17.7072 16.0587 17.4932C16.7236 17.2823 17.5774 18.8978 18.4825 19.5189C19.1668 19.989 19.6869 19.886 19.6869 19.886L22.1068 19.8523C22.1068 19.8523 23.3727 19.7743 22.7724 18.779C22.7232 18.6976 22.4229 18.0427 20.9732 16.6971C19.4559 15.2888 19.6591 15.5166 21.4869 13.0804C22.6 11.5968 23.045 10.6911 22.906 10.3031C22.7734 9.93363 21.9547 10.0313 21.9547 10.0313L19.2301 10.0483C19.2301 10.0483 19.0281 10.0207 18.8783 10.1103C18.7319 10.1981 18.6377 10.4028 18.6377 10.4028C18.6377 10.4028 18.2065 11.5508 17.6313 12.5272C16.4181 14.5874 15.933 14.6962 15.7347 14.5682C15.2734 14.2701 15.3886 13.3705 15.3886 12.7314C15.3886 10.7348 15.6914 9.90239 14.7989 9.6869C14.5027 9.61531 14.2848 9.56808 13.5273 9.56046C12.5552 9.55037 11.7323 9.56341 11.2664 9.79169C10.9564 9.94347 10.7173 10.2817 10.8629 10.3012C11.043 10.3253 11.4509 10.4111 11.6671 10.7056C11.9463 11.0854 11.9365 11.9385 11.9365 11.9385C11.9365 11.9385 12.0969 14.2888 11.5618 14.5808C11.1945 14.781 10.6907 14.3722 9.60908 12.5031C9.05484 11.5457 8.6364 10.4874 8.6364 10.4874C8.6364 10.4874 8.55571 10.2896 8.41181 10.1838C8.23715 10.0556 7.99312 10.0148 7.99312 10.0148L5.40399 10.0318C5.40399 10.0318 5.01531 10.0426 4.87263 10.2116C4.7457 10.3619 4.86255 10.6729 4.86255 10.6729C4.86255 10.6729 6.88957 15.4152 9.18473 17.8051C11.2892 19.9962 13.6791 19.8523 13.6791 19.8523Z" fill="white"/>
</g>
<defs>
<clipPath id="clip0_7_195">
<rect width="27.6" height="27.6" fill="white" transform="translate(0.400391)"/>
</clipPath>
</defs>
</svg>
