<svg width="21" height="21" viewBox="0 0 21 21" fill="none" xmlns="http://www.w3.org/2000/svg">
<path d="M19.6491 4.56751C19.6398 4.42091 19.5816 4.28166 19.4838 4.17205C19.386 4.06244 19.2543 3.98881 19.1097 3.96294C15.5618 3.32637 14.0808 2.86618 10.77 1.37075C10.6851 1.33236 10.5929 1.3125 10.4997 1.3125C10.4065 1.3125 10.3143 1.33236 10.2294 1.37075C6.91862 2.86618 5.43755 3.32637 1.8897 3.96294C1.7451 3.98881 1.61337 4.06244 1.51558 4.17205C1.4178 4.28166 1.35961 4.42091 1.35034 4.56751C1.19243 7.07397 1.52917 9.4094 2.35235 11.509C3.02645 13.2216 4.02407 14.7883 5.29071 16.1237C7.48382 18.4505 9.81228 19.4611 10.2565 19.6399C10.4143 19.7038 10.5908 19.7038 10.7487 19.6399C11.1929 19.4611 13.5213 18.4505 15.7144 16.1237C16.979 14.7879 17.9747 13.2211 18.647 11.509C19.4702 9.4094 19.807 7.07397 19.6491 4.56751ZM14.276 7.64819L9.73148 12.8982C9.67304 12.9659 9.60139 13.0209 9.52091 13.0599C9.44043 13.0989 9.35283 13.1211 9.26349 13.125H9.23642C9.06466 13.125 8.89974 13.0578 8.77704 12.9376L6.75907 10.9606C6.69751 10.9003 6.64843 10.8284 6.61464 10.7491C6.58084 10.6698 6.563 10.5847 6.56212 10.4985C6.56035 10.3244 6.62781 10.1568 6.74964 10.0324C6.87147 9.90809 7.03771 9.83725 7.21178 9.83548C7.38585 9.83371 7.55349 9.90116 7.67782 10.023L9.1954 11.5115L13.2847 6.78932C13.3411 6.72415 13.4097 6.67072 13.4868 6.63209C13.5638 6.59346 13.6477 6.57038 13.7337 6.56417C13.8196 6.55796 13.906 6.56875 13.9878 6.59591C14.0696 6.62307 14.1452 6.66607 14.2104 6.72247C14.2756 6.77886 14.329 6.84754 14.3676 6.92458C14.4062 7.00162 14.4293 7.08552 14.4355 7.17148C14.4417 7.25744 14.431 7.34379 14.4038 7.42558C14.3766 7.50737 14.3336 7.58302 14.2772 7.64819H14.276Z" fill="#1C4F8B"/>
</svg>
