<svg width="26" height="27" viewBox="0 0 26 27" fill="none" xmlns="http://www.w3.org/2000/svg">
<g filter="url(#filter0_d_7_200)">
<path d="M12.9283 18.2325C17.4704 18.2325 21.1505 14.5524 21.1505 10.0103C21.1505 5.46821 17.4704 1.78809 12.9283 1.78809C8.38618 1.78809 4.70605 5.46821 4.70605 10.0103C4.70605 14.5524 8.38618 18.2325 12.9283 18.2325ZM8.46841 9.83216L16.396 6.77555C16.7639 6.64262 17.0853 6.86531 16.9661 7.42168L16.9668 7.42099L15.6169 13.7802C15.5169 14.231 15.249 14.3407 14.8742 14.1283L12.8186 12.6133L11.8272 13.5685C11.7176 13.6781 11.6251 13.7706 11.4126 13.7706L11.5586 11.6787L15.3682 8.23705C15.534 8.0911 15.3312 8.00888 15.1126 8.15414L10.4047 11.1182L8.37522 10.4851C7.93465 10.3454 7.92505 10.0446 8.46841 9.83216Z" fill="white"/>
<path d="M8.46841 9.83216L16.396 6.77555C16.7639 6.64262 17.0853 6.86531 16.9661 7.42168L16.9668 7.42099L15.6169 13.7802C15.5169 14.231 15.249 14.3407 14.8742 14.1283L12.8186 12.6133L11.8272 13.5685C11.7176 13.6781 11.6251 13.7706 11.4126 13.7706L11.5586 11.6787L15.3682 8.23705C15.534 8.0911 15.3312 8.00888 15.1126 8.15414L10.4047 11.1182L8.37522 10.4851C7.93465 10.3454 7.92505 10.0446 8.46841 9.83216Z" fill="white"/>
<path d="M12.9283 18.2325C17.4704 18.2325 21.1505 14.5524 21.1505 10.0103C21.1505 5.46821 17.4704 1.78809 12.9283 1.78809C8.38618 1.78809 4.70605 5.46821 4.70605 10.0103C4.70605 14.5524 8.38618 18.2325 12.9283 18.2325ZM8.46841 9.83216L16.396 6.77555C16.7639 6.64262 17.0853 6.86531 16.9661 7.42168L16.9668 7.42099L15.6169 13.7802C15.5169 14.231 15.249 14.3407 14.8742 14.1283L12.8186 12.6133L11.8272 13.5685C11.7176 13.6781 11.6251 13.7706 11.4126 13.7706L11.5586 11.6787L15.3682 8.23705C15.534 8.0911 15.3312 8.00888 15.1126 8.15414L10.4047 11.1182L8.37522 10.4851C7.93465 10.3454 7.92505 10.0446 8.46841 9.83216Z" fill="#039BE5"/>
</g>
<defs>
<filter id="filter0_d_7_200" x="-1" y="0" width="28" height="28" filterUnits="userSpaceOnUse" color-interpolation-filters="sRGB">
<feFlood flood-opacity="0" result="BackgroundImageFix"/>
<feColorMatrix in="SourceAlpha" type="matrix" values="0 0 0 0 0 0 0 0 0 0 0 0 0 0 0 0 0 0 127 0" result="hardAlpha"/>
<feOffset dy="4"/>
<feGaussianBlur stdDeviation="2"/>
<feColorMatrix type="matrix" values="0 0 0 0 0 0 0 0 0 0 0 0 0 0 0 0 0 0 0.25 0"/>
<feBlend mode="normal" in2="BackgroundImageFix" result="effect1_dropShadow_7_200"/>
<feBlend mode="normal" in="SourceGraphic" in2="effect1_dropShadow_7_200" result="shape"/>
</filter>
</defs>
</svg>
