<svg width="15" height="15" viewBox="0 0 15 15" fill="none" xmlns="http://www.w3.org/2000/svg">
<path d="M9.74548 1.89199C9.17536 1.27646 8.37907 0.9375 7.50017 0.9375C6.61657 0.9375 5.81765 1.27441 5.25017 1.88613C4.67653 2.50459 4.39704 3.34512 4.46267 4.25273C4.59275 6.04336 5.95534 7.5 7.50017 7.5C9.04499 7.5 10.4052 6.04365 10.5374 4.25332C10.6039 3.35391 10.3226 2.51514 9.74548 1.89199ZM12.6564 14.0625H2.34392C2.20894 14.0643 2.07526 14.0359 1.95262 13.9795C1.82997 13.9231 1.72145 13.8401 1.63493 13.7364C1.4445 13.5088 1.36775 13.1979 1.42458 12.8836C1.67185 11.5119 2.44353 10.3597 3.65642 9.55078C4.73396 8.83272 6.0989 8.4375 7.50017 8.4375C8.90144 8.4375 10.2664 8.83301 11.3439 9.55078C12.5568 10.3594 13.3285 11.5116 13.5758 12.8833C13.6326 13.1977 13.5558 13.5085 13.3654 13.7361C13.2789 13.8398 13.1704 13.9229 13.0478 13.9794C12.9251 14.0358 12.7914 14.0642 12.6564 14.0625Z" fill="#D5DBE2"/>
</svg>
