<svg width="21" height="21" viewBox="0 0 21 21" fill="none" xmlns="http://www.w3.org/2000/svg">
<path d="M19.6491 4.56754C19.6398 4.42094 19.5816 4.28169 19.4838 4.17208C19.386 4.06247 19.2543 3.98884 19.1097 3.96297C15.5618 3.3264 14.0808 2.86621 10.77 1.37078C10.6851 1.33239 10.5929 1.31253 10.4997 1.31253C10.4065 1.31253 10.3143 1.33239 10.2294 1.37078C6.91862 2.86621 5.43755 3.3264 1.8897 3.96297C1.7451 3.98884 1.61337 4.06247 1.51558 4.17208C1.4178 4.28169 1.35961 4.42094 1.35034 4.56754C1.19243 7.074 1.52917 9.40943 2.35235 11.509C3.02645 13.2216 4.02407 14.7884 5.29071 16.1237C7.48382 18.4505 9.81228 19.4611 10.2565 19.64C10.4143 19.7038 10.5908 19.7038 10.7487 19.64C11.1929 19.4611 13.5213 18.4505 15.7144 16.1237C16.979 14.7879 17.9747 13.2212 18.647 11.509C19.4702 9.40943 19.807 7.074 19.6491 4.56754ZM14.276 7.64822L9.73148 12.8982C9.67304 12.9659 9.60139 13.021 9.52091 13.06C9.44043 13.099 9.35283 13.1211 9.26349 13.125H9.23642C9.06466 13.1251 8.89974 13.0578 8.77704 12.9376L6.75907 10.9606C6.69751 10.9003 6.64843 10.8285 6.61464 10.7492C6.58084 10.6699 6.563 10.5847 6.56212 10.4985C6.56035 10.3244 6.62781 10.1568 6.74964 10.0325C6.87147 9.90812 7.03771 9.83728 7.21178 9.83551C7.38585 9.83374 7.55349 9.90119 7.67782 10.023L9.1954 11.5115L13.2847 6.78935C13.3411 6.72418 13.4097 6.67075 13.4868 6.63212C13.5638 6.59349 13.6477 6.57041 13.7337 6.5642C13.8196 6.55799 13.906 6.56878 13.9878 6.59594C14.0696 6.6231 14.1452 6.6661 14.2104 6.7225C14.2756 6.77889 14.329 6.84757 14.3676 6.92461C14.4062 7.00165 14.4293 7.08555 14.4355 7.17151C14.4417 7.25747 14.431 7.34382 14.4038 7.42561C14.3766 7.5074 14.3336 7.58305 14.2772 7.64822H14.276Z" fill="white"/>
</svg>
