<svg width="21" height="21" viewBox="0 0 21 21" fill="none" xmlns="http://www.w3.org/2000/svg">
<path d="M10.5 1.96875C5.78854 1.96875 1.96875 5.78854 1.96875 10.5C1.96875 15.2041 5.79633 19.0312 10.5 19.0312C15.2111 19.0312 19.0312 15.2111 19.0312 10.5C19.0312 5.79592 15.2041 1.96875 10.5 1.96875ZM14.9297 11.8125H10.0078C9.9643 11.8125 9.92257 11.7952 9.8918 11.7644C9.86103 11.7337 9.84375 11.6919 9.84375 11.6484V4.75781C9.84375 4.7143 9.86103 4.67257 9.8918 4.6418C9.92257 4.61103 9.9643 4.59375 10.0078 4.59375H10.9922C11.0357 4.59375 11.0774 4.61103 11.1082 4.6418C11.139 4.67257 11.1562 4.7143 11.1562 4.75781V10.5H14.9297C14.9732 10.5 15.0149 10.5173 15.0457 10.5481C15.0765 10.5788 15.0938 10.6206 15.0938 10.6641V11.6484C15.0938 11.6919 15.0765 11.7337 15.0457 11.7644C15.0149 11.7952 14.9732 11.8125 14.9297 11.8125Z" fill="#1C4F8B"/>
</svg>
