<svg width="24" height="25" viewBox="0 0 24 25" fill="none" xmlns="http://www.w3.org/2000/svg">
<g filter="url(#filter0_d_7_210)">
<path d="M12.0024 2.11133H11.9985C7.71002 2.11133 4.22266 5.42524 4.22266 9.50022C4.22266 11.1165 4.77099 12.6146 5.70335 13.831L4.73405 16.576L7.72363 15.6681C8.95349 16.4421 10.4206 16.8891 12.0024 16.8891C16.2909 16.8891 19.7782 13.5743 19.7782 9.50022C19.7782 5.42617 16.2909 2.11133 12.0024 2.11133Z" fill="#4CAF50"/>
<path d="M16.528 12.5453C16.3403 13.0486 15.5956 13.4661 15.0016 13.588C14.5952 13.6702 14.0644 13.7358 12.2774 13.032C9.99172 12.1324 8.51978 9.9259 8.40506 9.78274C8.2952 9.63958 7.48145 8.61437 7.48145 7.55407C7.48145 6.49376 8.04825 5.97747 8.27672 5.7558C8.46436 5.57385 8.7745 5.49072 9.072 5.49072C9.16825 5.49072 9.25478 5.49534 9.33256 5.49904C9.56103 5.50827 9.67575 5.5212 9.82645 5.86386C10.0141 6.29334 10.471 7.35365 10.5255 7.46263C10.5809 7.57162 10.6363 7.7194 10.5585 7.86255C10.4856 8.01033 10.4214 8.07591 10.3067 8.20152C10.192 8.32713 10.0831 8.42319 9.96839 8.55803C9.86339 8.67533 9.74478 8.80094 9.877 9.01799C10.0092 9.23042 10.4662 9.93883 11.1389 10.5078C12.0071 11.242 12.711 11.4766 12.9628 11.5764C13.1505 11.6503 13.3741 11.6327 13.5112 11.4942C13.6852 11.3159 13.9001 11.0204 14.1188 10.7294C14.2744 10.5207 14.4708 10.4948 14.6769 10.5687C14.8869 10.638 15.9981 11.1598 16.2266 11.2679C16.4551 11.3769 16.6058 11.4286 16.6612 11.5201C16.7156 11.6115 16.7156 12.041 16.528 12.5453Z" fill="#FAFAFA"/>
</g>
<defs>
<filter id="filter0_d_7_210" x="-2" y="0" width="28" height="27" filterUnits="userSpaceOnUse" color-interpolation-filters="sRGB">
<feFlood flood-opacity="0" result="BackgroundImageFix"/>
<feColorMatrix in="SourceAlpha" type="matrix" values="0 0 0 0 0 0 0 0 0 0 0 0 0 0 0 0 0 0 127 0" result="hardAlpha"/>
<feOffset dy="4"/>
<feGaussianBlur stdDeviation="2"/>
<feColorMatrix type="matrix" values="0 0 0 0 0 0 0 0 0 0 0 0 0 0 0 0 0 0 0.25 0"/>
<feBlend mode="normal" in2="BackgroundImageFix" result="effect1_dropShadow_7_210"/>
<feBlend mode="normal" in="SourceGraphic" in2="effect1_dropShadow_7_210" result="shape"/>
</filter>
</defs>
</svg>
