<svg width="25" height="25" viewBox="0 0 25 25" fill="none" xmlns="http://www.w3.org/2000/svg">
<g clip-path="url(#clip0_7_70)">
<path d="M12.5003 23.1772C6.61283 23.1772 1.82324 18.3876 1.82324 12.5001C1.82324 6.61258 6.61283 1.823 12.5003 1.823C18.3878 1.823 23.1774 6.61258 23.1774 12.5001C23.1774 18.3876 18.3878 23.1772 12.5003 23.1772ZM12.5003 3.90633C7.76178 3.90633 3.90658 7.76154 3.90658 12.5001C3.90658 17.2386 7.76178 21.0938 12.5003 21.0938C17.2389 21.0938 21.0941 17.2386 21.0941 12.5001C21.0941 7.76154 17.2389 3.90633 12.5003 3.90633Z" fill="white"/>
<path d="M12.4997 5.72917C11.9247 5.72917 11.458 5.2625 11.458 4.6875V1.04167C11.458 0.466667 11.9247 0 12.4997 0C13.0747 0 13.5413 0.466667 13.5413 1.04167V4.6875C13.5413 5.2625 13.0747 5.72917 12.4997 5.72917Z" fill="white"/>
<path d="M23.958 13.5416H20.3122C19.7372 13.5416 19.2705 13.0749 19.2705 12.4999C19.2705 11.9249 19.7372 11.4583 20.3122 11.4583H23.958C24.533 11.4583 24.9997 11.9249 24.9997 12.4999C24.9997 13.0749 24.533 13.5416 23.958 13.5416Z" fill="white"/>
<path d="M12.4997 24.9999C11.9247 24.9999 11.458 24.5333 11.458 23.9583V20.3124C11.458 19.7374 11.9247 19.2708 12.4997 19.2708C13.0747 19.2708 13.5413 19.7374 13.5413 20.3124V23.9583C13.5413 24.5333 13.0747 24.9999 12.4997 24.9999Z" fill="white"/>
<path d="M4.6875 13.5416H1.04167C0.466667 13.5416 0 13.0749 0 12.4999C0 11.9249 0.466667 11.4583 1.04167 11.4583H4.6875C5.2625 11.4583 5.72917 11.9249 5.72917 12.4999C5.72917 13.0749 5.2625 13.5416 4.6875 13.5416Z" fill="white"/>
<path d="M12.5 15.625C10.7771 15.625 9.375 14.2229 9.375 12.5C9.375 10.7771 10.7771 9.375 12.5 9.375C14.2229 9.375 15.625 10.7771 15.625 12.5C15.625 14.2229 14.2229 15.625 12.5 15.625ZM12.5 11.4583C11.926 11.4583 11.4583 11.926 11.4583 12.5C11.4583 13.074 11.926 13.5417 12.5 13.5417C13.074 13.5417 13.5417 13.074 13.5417 12.5C13.5417 11.926 13.074 11.4583 12.5 11.4583Z" fill="white"/>
</g>
<defs>
<clipPath id="clip0_7_70">
<rect width="25" height="25" fill="white"/>
</clipPath>
</defs>
</svg>
