<svg width="25" height="25" viewBox="0 0 25 25" fill="none" xmlns="http://www.w3.org/2000/svg">
<path d="M12.5 23.1771C6.61252 23.1771 1.82293 18.3876 1.82293 12.5001C1.82293 6.61256 6.61252 1.82298 12.5 1.82298C18.3875 1.82298 23.1771 6.61256 23.1771 12.5001C23.1771 18.3876 18.3875 23.1771 12.5 23.1771ZM12.5 3.90631C7.76148 3.90631 3.90627 7.76152 3.90627 12.5001C3.90627 17.2386 7.76148 21.0938 12.5 21.0938C17.2386 21.0938 21.0938 17.2386 21.0938 12.5001C21.0938 7.76152 17.2386 3.90631 12.5 3.90631Z" fill="white"/>
<path d="M12.5 5.72917C11.925 5.72917 11.4583 5.2625 11.4583 4.6875V1.04167C11.4583 0.466667 11.925 0 12.5 0C13.075 0 13.5417 0.466667 13.5417 1.04167V4.6875C13.5417 5.2625 13.075 5.72917 12.5 5.72917Z" fill="white"/>
<path d="M23.9583 13.5416H20.3125C19.7375 13.5416 19.2708 13.075 19.2708 12.5C19.2708 11.925 19.7375 11.4583 20.3125 11.4583H23.9583C24.5333 11.4583 25 11.925 25 12.5C25 13.075 24.5333 13.5416 23.9583 13.5416Z" fill="white"/>
<path d="M12.5 25C11.925 25 11.4583 24.5333 11.4583 23.9583V20.3124C11.4583 19.7374 11.925 19.2708 12.5 19.2708C13.075 19.2708 13.5417 19.7374 13.5417 20.3124V23.9583C13.5417 24.5333 13.075 25 12.5 25Z" fill="white"/>
<path d="M4.6875 13.5416H1.04167C0.466667 13.5416 0 13.075 0 12.5C0 11.925 0.466667 11.4583 1.04167 11.4583H4.6875C5.2625 11.4583 5.72917 11.925 5.72917 12.5C5.72917 13.075 5.2625 13.5416 4.6875 13.5416Z" fill="white"/>
<path d="M12.5 15.625C10.7771 15.625 9.37501 14.2229 9.37501 12.5C9.37501 10.7771 10.7771 9.37501 12.5 9.37501C14.2229 9.37501 15.625 10.7771 15.625 12.5C15.625 14.2229 14.2229 15.625 12.5 15.625ZM12.5 11.4583C11.926 11.4583 11.4583 11.926 11.4583 12.5C11.4583 13.074 11.926 13.5417 12.5 13.5417C13.074 13.5417 13.5417 13.074 13.5417 12.5C13.5417 11.926 13.074 11.4583 12.5 11.4583Z" fill="white"/>
</svg>
