<svg width="59" height="58" viewBox="0 0 59 58" fill="none" xmlns="http://www.w3.org/2000/svg">
<g filter="url(#filter0_d_7_169)">
<path d="M35.037 33.6876C34.2364 33.6876 33.1117 33.398 31.4276 32.4571C29.3797 31.3087 27.7957 30.2484 25.7588 28.2169C23.795 26.2543 22.8394 24.9837 21.5018 22.5498C19.9908 19.8018 20.2484 18.3613 20.5363 17.7457C20.8792 17.0098 21.3853 16.5697 22.0395 16.1329C22.4111 15.8895 22.8044 15.6808 23.2142 15.5095C23.2552 15.4918 23.2934 15.475 23.3274 15.4599C23.5305 15.3684 23.8381 15.2302 24.2277 15.3778C24.4878 15.4754 24.7199 15.6752 25.0833 16.0341C25.8286 16.7691 26.847 18.406 27.2227 19.2099C27.4749 19.7517 27.6419 20.1094 27.6423 20.5105C27.6423 20.9801 27.406 21.3423 27.1193 21.7332C27.0656 21.8066 27.0123 21.8767 26.9606 21.9448C26.6485 22.355 26.58 22.4735 26.6251 22.6852C26.7166 23.1105 27.3986 24.3767 28.5196 25.4951C29.6406 26.6136 30.8702 27.2527 31.2972 27.3437C31.5178 27.3909 31.6388 27.3195 32.0621 26.9963C32.1228 26.95 32.1852 26.902 32.2504 26.854C32.6876 26.5287 33.033 26.2986 33.4915 26.2986H33.494C33.8931 26.2986 34.2347 26.4717 34.8007 26.7572C35.539 27.1296 37.2252 28.1349 37.9647 28.881C38.3244 29.2436 38.525 29.4749 38.623 29.7345C38.7706 30.1254 38.6316 30.4318 38.541 30.6369C38.5258 30.6709 38.509 30.7082 38.4913 30.7497C38.3187 31.1588 38.1088 31.5512 37.8642 31.9219C37.4282 32.574 36.9865 33.0789 36.249 33.4222C35.8703 33.6014 35.4559 33.6921 35.037 33.6876Z" fill="white"/>
</g>
<defs>
<filter id="filter0_d_7_169" x="-1" y="-2" width="61" height="61" filterUnits="userSpaceOnUse" color-interpolation-filters="sRGB">
<feFlood flood-opacity="0" result="BackgroundImageFix"/>
<feColorMatrix in="SourceAlpha" type="matrix" values="0 0 0 0 0 0 0 0 0 0 0 0 0 0 0 0 0 0 127 0" result="hardAlpha"/>
<feOffset dy="4"/>
<feGaussianBlur stdDeviation="10"/>
<feColorMatrix type="matrix" values="0 0 0 0 0 0 0 0 0 0 0 0 0 0 0 0 0 0 0.25 0"/>
<feBlend mode="normal" in2="BackgroundImageFix" result="effect1_dropShadow_7_169"/>
<feBlend mode="normal" in="SourceGraphic" in2="effect1_dropShadow_7_169" result="shape"/>
</filter>
</defs>
</svg>
