<svg width="21" height="20" viewBox="0 0 21 20" fill="none" xmlns="http://www.w3.org/2000/svg">
<g filter="url(#filter0_d_7_168)">
<path d="M10.5 0.3125C6.87709 0.3125 3.9375 2.95842 3.9375 6.21875C3.9375 11.4688 10.5 18.6875 10.5 18.6875C10.5 18.6875 17.0625 11.4688 17.0625 6.21875C17.0625 2.95842 14.1229 0.3125 10.5 0.3125ZM10.5 9.5C9.98082 9.5 9.47331 9.34605 9.04163 9.05761C8.60995 8.76917 8.2735 8.3592 8.07482 7.87954C7.87614 7.39989 7.82415 6.87209 7.92544 6.36289C8.02672 5.85369 8.27673 5.38596 8.64384 5.01884C9.01096 4.65173 9.47869 4.40172 9.98789 4.30044C10.4971 4.19915 11.0249 4.25114 11.5045 4.44982C11.9842 4.6485 12.3942 4.98495 12.6826 5.41663C12.971 5.84831 13.125 6.35582 13.125 6.875C13.1242 7.57096 12.8474 8.2382 12.3553 8.73032C11.8632 9.22243 11.196 9.49924 10.5 9.5Z" fill="white"/>
</g>
<defs>
<filter id="filter0_d_7_168" x="-0.0625" y="0.3125" width="21.125" height="26.375" filterUnits="userSpaceOnUse" color-interpolation-filters="sRGB">
<feFlood flood-opacity="0" result="BackgroundImageFix"/>
<feColorMatrix in="SourceAlpha" type="matrix" values="0 0 0 0 0 0 0 0 0 0 0 0 0 0 0 0 0 0 127 0" result="hardAlpha"/>
<feOffset dy="4"/>
<feGaussianBlur stdDeviation="2"/>
<feComposite in2="hardAlpha" operator="out"/>
<feColorMatrix type="matrix" values="0 0 0 0 0 0 0 0 0 0 0 0 0 0 0 0 0 0 0.25 0"/>
<feBlend mode="normal" in2="BackgroundImageFix" result="effect1_dropShadow_7_168"/>
<feBlend mode="normal" in="SourceGraphic" in2="effect1_dropShadow_7_168" result="shape"/>
</filter>
</defs>
</svg>
