<svg width="23" height="27" viewBox="0 0 23 27" fill="none" xmlns="http://www.w3.org/2000/svg">
<g filter="url(#filter0_d_7_203)">
<path d="M17.2628 12.3829C17.0248 13.3984 15.8044 14.6609 14.8347 14.8941C13.5653 15.1548 12.2859 15.2663 11.0077 15.228C10.9823 15.2273 10.9579 15.2379 10.9401 15.2576L9.74998 16.5771L8.48405 17.9802C8.39149 18.0844 8.22891 18.0136 8.22891 17.8697V14.9913C8.22891 14.9438 8.19747 14.9034 8.15423 14.8942L8.15349 14.8941C7.18385 14.6608 5.96395 13.3983 5.72546 12.3829C5.32879 10.418 5.32879 8.42616 5.72546 6.4613C5.96395 5.44581 7.18385 4.18333 8.15349 3.95008C10.3705 3.4947 12.6183 3.4947 14.8347 3.95008C15.8049 4.18333 17.0248 5.44581 17.2628 6.4613C17.6599 8.42621 17.6599 10.418 17.2628 12.3829Z" fill="#7D3DAF"/>
<path fill-rule="evenodd" clip-rule="evenodd" d="M18.5527 6.14613L18.5483 6.12708C18.1918 4.57053 16.5845 2.90027 15.1085 2.55279L15.0918 2.54908C12.7045 2.05721 10.2838 2.05721 7.89688 2.54908L7.87974 2.55279C6.40421 2.90027 4.79695 4.57053 4.43995 6.12708L4.43603 6.14613C3.99528 8.3199 3.99528 10.5244 4.43603 12.6981L4.43995 12.7172C4.78172 14.2073 6.26929 15.8008 7.69022 16.2391V17.9766C7.69022 18.6055 8.39982 18.9143 8.80335 18.4605L10.4334 16.6306C10.7869 16.652 11.1406 16.6639 11.4944 16.6639C12.6961 16.6639 13.8984 16.5412 15.0918 16.2952L15.1085 16.2915C16.5845 15.944 18.1918 14.2738 18.5483 12.7172L18.5527 12.6982C18.9934 10.5244 18.9934 8.3199 18.5527 6.14613ZM14.8347 14.8941C15.8044 14.6609 17.0248 13.3984 17.2628 12.3829C17.6599 10.418 17.6599 8.42621 17.2628 6.4613C17.0248 5.44581 15.8049 4.18333 14.8347 3.95008C12.6183 3.4947 10.3705 3.4947 8.15349 3.95008C7.18385 4.18333 5.96395 5.44581 5.72546 6.4613C5.32879 8.42616 5.32879 10.418 5.72546 12.3829C5.96395 13.3983 7.18385 14.6608 8.15349 14.8941L8.15423 14.8942C8.19747 14.9034 8.22891 14.9438 8.22891 14.9913V17.8697C8.22891 18.0136 8.39149 18.0844 8.48405 17.9802L9.74998 16.5771L10.9401 15.2576C10.9579 15.2379 10.9823 15.2273 11.0077 15.228C12.2859 15.2663 13.5653 15.1548 14.8347 14.8941Z" fill="#7D3DAF"/>
<path d="M13.6037 13.845C13.4546 13.7956 13.3125 13.7624 13.1806 13.7026C11.8135 13.0829 10.5553 12.2835 9.5587 11.058C8.99195 10.3611 8.54836 9.57435 8.17338 8.74175C7.99556 8.3469 7.84571 7.93658 7.69297 7.52895C7.55369 7.15721 7.75883 6.77317 7.97485 6.49308C8.17754 6.23023 8.43837 6.02906 8.72084 5.8808C8.94131 5.76507 9.1588 5.83179 9.31982 6.03596C9.66791 6.47735 9.98765 6.94133 10.2466 7.45297C10.4058 7.76768 10.3621 8.15236 10.0735 8.36653C10.0034 8.41859 9.93951 8.47969 9.87418 8.53849C9.81688 8.59001 9.76296 8.64207 9.72369 8.71184C9.65189 8.83949 9.64847 8.99005 9.6947 9.12884C10.0505 10.1972 10.6503 11.0279 11.6345 11.4754C11.792 11.5469 11.9502 11.6303 12.1316 11.6072C12.4355 11.5684 12.5339 11.2043 12.7468 11.014C12.955 10.8281 13.2209 10.8256 13.4451 10.9806C13.6694 11.1357 13.8867 11.3021 14.1028 11.4703C14.3149 11.6354 14.5261 11.797 14.7217 11.9852C14.9098 12.1662 14.9746 12.4036 14.8687 12.6493C14.6748 13.0991 14.3926 13.4734 13.9855 13.7122C13.8706 13.7796 13.7333 13.8014 13.6037 13.845Z" fill="white"/>
<path d="M11.4982 5.36654C13.2864 5.42127 14.7551 6.7178 15.0699 8.64925C15.1235 8.97834 15.1426 9.31482 15.1664 9.64884C15.1765 9.78934 15.1036 9.92283 14.9649 9.92465C14.8215 9.92652 14.757 9.79549 14.7477 9.65505C14.7293 9.37705 14.7165 9.09782 14.6815 8.82212C14.4963 7.36679 13.4341 6.16276 12.1082 5.9044C11.9087 5.8655 11.7045 5.85528 11.5024 5.83212C11.3746 5.81746 11.2073 5.809 11.179 5.63549C11.1552 5.49002 11.2676 5.37419 11.3944 5.36675C11.4289 5.36466 11.4636 5.36637 11.4982 5.36654Z" fill="white"/>
<path d="M14.2154 9.21512C14.2125 9.23951 14.2109 9.29687 14.1978 9.35091C14.1504 9.54705 13.8782 9.5716 13.8155 9.37364C13.7969 9.3149 13.7941 9.24807 13.794 9.18483C13.7934 8.77104 13.7111 8.35768 13.5201 7.99766C13.3238 7.62764 13.0238 7.31657 12.672 7.12835C12.4593 7.01455 12.2292 6.94382 11.996 6.90166C11.8941 6.88325 11.7911 6.87207 11.6887 6.8565C11.5646 6.83767 11.4984 6.75126 11.5043 6.61766C11.5098 6.49247 11.5935 6.40242 11.7184 6.41013C12.1288 6.43559 12.5251 6.53249 12.89 6.74356C13.6319 7.17281 14.0557 7.85037 14.1794 8.7551C14.185 8.79608 14.194 8.83669 14.1968 8.87784C14.2038 8.97944 14.2082 9.08115 14.2154 9.21512C14.2125 9.23951 14.2082 9.08115 14.2154 9.21512Z" fill="white"/>
<path d="M13.103 9.16834C12.9534 9.17129 12.8733 9.08081 12.8579 8.93095C12.8472 8.82646 12.8387 8.72058 12.8159 8.61892C12.7709 8.41872 12.6735 8.23317 12.5193 8.11049C12.4466 8.05254 12.3641 8.01033 12.2777 7.9831C12.168 7.94848 12.054 7.958 11.9445 7.92869C11.8256 7.89685 11.7598 7.79167 11.7785 7.66979C11.7955 7.55887 11.8943 7.47231 12.0052 7.48108C12.6985 7.53576 13.194 7.92735 13.2647 8.81903C13.2697 8.88194 13.2756 8.94845 13.2628 9.00864C13.2409 9.11168 13.1711 9.16331 13.103 9.16834C12.9534 9.17129 13.1711 9.16331 13.103 9.16834Z" fill="white"/>
</g>
<defs>
<filter id="filter0_d_7_203" x="-2" y="0" width="27" height="28" filterUnits="userSpaceOnUse" color-interpolation-filters="sRGB">
<feFlood flood-opacity="0" result="BackgroundImageFix"/>
<feColorMatrix in="SourceAlpha" type="matrix" values="0 0 0 0 0 0 0 0 0 0 0 0 0 0 0 0 0 0 127 0" result="hardAlpha"/>
<feOffset dy="4"/>
<feGaussianBlur stdDeviation="2"/>
<feColorMatrix type="matrix" values="0 0 0 0 0 0 0 0 0 0 0 0 0 0 0 0 0 0 0.25 0"/>
<feBlend mode="normal" in2="BackgroundImageFix" result="effect1_dropShadow_7_203"/>
<feBlend mode="normal" in="SourceGraphic" in2="effect1_dropShadow_7_203" result="shape"/>
</filter>
</defs>
</svg>
