<svg width="14" height="14" viewBox="0 0 14 14" fill="none" xmlns="http://www.w3.org/2000/svg">
<path d="M9.39518 1.01812C8.78705 0.361563 7.93768 0 7.00018 0C6.05768 0 5.20549 0.359375 4.60018 1.01187C3.9883 1.67156 3.69018 2.56812 3.76018 3.53625C3.89893 5.44625 5.35237 7 7.00018 7C8.64799 7 10.0989 5.44656 10.2399 3.53687C10.3108 2.5775 10.0108 1.68281 9.39518 1.01812V1.01812ZM12.5002 14H1.50018C1.3562 14.0019 1.21361 13.9716 1.08279 13.9115C0.951973 13.8513 0.836211 13.7627 0.743929 13.6522C0.540804 13.4094 0.458929 13.0778 0.519554 12.7425C0.783304 11.2794 1.60643 10.0503 2.90018 9.1875C4.04955 8.42156 5.50549 8 7.00018 8C8.49487 8 9.9508 8.42187 11.1002 9.1875C12.3939 10.05 13.2171 11.2791 13.4808 12.7422C13.5414 13.0775 13.4596 13.4091 13.2564 13.6519C13.1642 13.7625 13.0484 13.8511 12.9176 13.9113C12.7868 13.9715 12.6442 14.0018 12.5002 14V14Z" fill="#3B3C44"/>
</svg>
